<?xml version="1.0" encoding="UTF-8" standalone="no"?>
<svg width="16px" height="12px" viewBox="0 0 16 12" version="1.1" xmlns="http://www.w3.org/2000/svg" xmlns:xlink="http://www.w3.org/1999/xlink">
    <g id="Page-1" stroke="none" stroke-width="1" fill="none" fill-rule="evenodd">
        <g id="Shape-208" fill="#465760">
            <path d="M16.1703175,4 L16.1740508,4.00711945 L16.1740508,12 L0.17405084,12 L0.177961951,4 L16.1703175,4 L16.1703175,4 L16.1703175,4 Z M11.6026223,7.2 L11.6026223,6.99994074 C11.6026223,6.81588147 11.3523717,6.66666667 11.043683,6.66666667 C10.7349943,6.66666667 10.4847438,6.816 10.4847438,6.99994074 L10.4847438,7.2 C10.4847438,7.26317038 10.3414311,7.33333333 10.1492212,7.33333333 L6.19888044,7.33333333 C6.0068693,7.33333333 5.86335787,7.26317038 5.86335787,7.2 L5.86335787,6.99994074 C5.86335787,6.81588147 5.61310735,6.66666667 5.30441865,6.66666667 C4.99572995,6.66666667 4.74547941,6.816 4.74547941,6.99994074 L4.74547941,7.2 C4.74547941,7.64124444 5.39764144,8 6.19888044,8 L10.1490225,8 C10.950659,8 11.6026223,7.64124444 11.6026223,7.2 L11.6026223,7.2 L11.6026223,7.2 Z M0.17405084,4 L2.55213596,0 L2.55231383,0 L13.79561,0 L16.1740508,4 L0.17405084,4 L0.17405084,4 L0.17405084,4 Z M3.22166989,2.66666667 L13.8879798,2.66666667 L13.8883366,1.33333333 L3.22184825,1.33333333 L3.22166989,2.66666667 L3.22166989,2.66666667 L3.22166989,2.66666667 Z M1.69804085,3.33333333 L1.69786036,4.66666667 L14.6502413,4.66666667 L14.6502413,3.33333333 L1.69804085,3.33333333 L1.69804085,3.33333333 L1.69804085,3.33333333 Z"></path>
        </g>
    </g>
</svg>