<?xml version="1.0" encoding="UTF-8" standalone="no"?>
<svg xmlns="http://www.w3.org/2000/svg" width="17" height="15">
  <path fill="#FFF" fill-rule="evenodd" d="M16.154 5.253c0-.152-.063-.296-.17-.404L11.414.253c-.108-.107-.25-.17-.403-.17-.31 0-.57.26-.57.574v2.298h-2c-2.93 0-6.572.52-7.813 3.616-.375.952-.473 1.984-.473 2.99 0 1.255.625 2.897 1.134 4.046.098.207.196.494.33.682.063.09.125.153.25.153.18 0 .286-.144.286-.314 0-.145-.036-.306-.045-.45-.028-.368-.045-.736-.045-1.104 0-4.28 2.526-5.025 6.375-5.025h2V9.85c0 .314.26.574.57.574.153 0 .296-.063.403-.17l4.57-4.595c.108-.108.17-.25.17-.404z"/>
</svg>