<?xml version="1.0" encoding="UTF-8" standalone="no"?>
<svg width="8px" height="8px" viewBox="0 0 8 8" version="1.1" xmlns="http://www.w3.org/2000/svg" xmlns:xlink="http://www.w3.org/1999/xlink" >
    <defs></defs>
    <g stroke="none" stroke-width="1" fill="none" fill-rule="evenodd" >
        <path fill="#F7F4EC" d="M2.44930385,3.9662562 L0.273565332,1.79051768 C-0.125895644,1.39105671 -0.123046424,0.76104173 0.267292351,0.370702955 L0.374114651,0.263880655 C0.758455414,-0.120460108 1.40012613,-0.12364961 1.79392938,0.270153637 L3.9696679,2.44589215 L6.14540641,0.270153637 C6.53920966,-0.12364961 7.18088038,-0.120460108 7.56522114,0.263880655 L7.67204344,0.370702955 C8.06238222,0.76104173 8.06523144,1.39105671 7.66577046,1.79051768 L5.49003194,3.9662562 L7.66577046,6.14199472 C8.06523144,6.5414557 8.06238222,7.17147067 7.67204344,7.56180945 L7.56522114,7.66863175 C7.18088038,8.05297251 6.53920966,8.05616201 6.14540641,7.66235876 L3.9696679,5.48662025 L1.79392938,7.66235876 C1.40012613,8.05616201 0.758455414,8.05297251 0.374114651,7.66863175 L0.267292351,7.56180945 C-0.123046424,7.17147067 -0.125895644,6.5414557 0.273565332,6.14199472 L2.44930385,3.9662562 Z"   ></path>
    </g>
</svg>