<?xml version="1.0" encoding="UTF-8" standalone="no"?>
<svg width="16px" height="16px" viewBox="0 0 16 16" version="1.1" xmlns="http://www.w3.org/2000/svg" xmlns:xlink="http://www.w3.org/1999/xlink" xmlns:sketch="http://www.bohemiancoding.com/sketch/ns">
    <!-- Generator: Sketch 3.5.1 (25234) - http://www.bohemiancoding.com/sketch -->
    <title>Group 4</title>
    <desc>Created with Sketch.</desc>
    <defs></defs>
    <g id="Page-1" stroke="none" stroke-width="1" fill="none" fill-rule="evenodd" sketch:type="MSPage">
        <g id="toolbar" sketch:type="MSArtboardGroup" transform="translate(-419.000000, -15.000000)" fill="#FFFFFF">
            <g id="topnav" sketch:type="MSLayerGroup" transform="translate(0.000000, -3.000000)">
                <g id="Group-Copy-4" transform="translate(408.000000, 13.000000)" sketch:type="MSShapeGroup">
                    <g id="Historik-+-Fill-66" transform="translate(11.000000, 5.000000)">
                        <g id="Group-4">
                            <path d="M3.99584113,14.9353296 C5.20939904,15.6448326 6.55354544,16 8.00998129,16 C9.44728634,16 10.7914327,15.6448326 12.0232897,14.9353296 C13.2368476,14.2075276 14.2075276,13.2368476 14.9361614,12.0232897 C15.6456644,10.790601 16,9.44645456 16,8.00914951 C16,6.55271366 15.6456644,5.20856727 14.9361614,3.99500936 C14.2075276,2.76315242 13.2368476,1.79164067 12.0232897,1.08213766 C10.7914327,0.354335621 9.44728634,0 8.00998129,0 C6.55354544,0 5.20939904,0.354335621 3.99584113,1.08213766 C2.76315242,1.79164067 1.79247245,2.76315242 1.08296943,3.99500936 C0.355167394,5.20856727 0,6.55271366 0,8.00914951 C0,9.44645456 0.355167394,10.790601 1.08296943,12.0232897 C1.79247245,13.2368476 2.76315242,14.2075276 3.99584113,14.9353296 L3.99584113,14.9353296 Z M5.15283843,3.09918902 C6.03035974,2.59513412 6.98274069,2.33312539 8.00998129,2.33312539 C9.0363901,2.33312539 9.96964026,2.59513412 10.8471616,3.09918902 C11.7063839,3.60324392 12.3967561,4.29361614 12.900811,5.15283843 C13.4048659,6.03035974 13.6668746,6.98190892 13.6668746,8.00914951 C13.6668746,9.03555833 13.4048659,9.96964026 12.900811,10.8471616 C12.3967561,11.7055521 11.7063839,12.3967561 10.8471616,12.900811 C9.96964026,13.4048659 9.0363901,13.6660428 8.00998129,13.6660428 C6.98274069,13.6660428 6.03035974,13.4048659 5.15283843,12.900811 C4.29444791,12.3967561 3.60324392,11.7055521 3.09918902,10.8471616 C2.59513412,9.96964026 2.33395716,9.03555833 2.33395716,8.00914951 C2.33395716,6.98190892 2.59513412,6.03035974 3.09918902,5.15283843 C3.60324392,4.29361614 4.29444791,3.60324392 5.15283843,3.09918902 L5.15283843,3.09918902 Z M5.43314618,9.24100645 C5.48887503,9.29756706 5.58286546,9.33499688 5.67602412,9.33499688 L8.99896028,9.33499688 C9.09211894,9.33499688 9.18610938,9.29756706 9.24183822,9.24100645 C9.29756706,9.1852776 9.33499688,9.09211894 9.33499688,8.99896028 L9.33499688,4.34934498 C9.33499688,4.25618632 9.29756706,4.16302766 9.24183822,4.10729881 C9.18610938,4.0507382 9.09211894,4.01330838 8.99896028,4.01330838 L8.34601788,4.01330838 C8.25202745,4.01330838 8.15886879,4.0507382 8.10313995,4.10729881 C8.04657933,4.16302766 8.00998129,4.25618632 8.00998129,4.34934498 L8.00998129,8.00914951 L5.67602412,8.00914951 C5.58286546,8.00914951 5.48887503,8.04657933 5.43314618,8.10230817 C5.37741734,8.15803701 5.33998752,8.25202745 5.33998752,8.34518611 L5.33998752,8.99896028 C5.33998752,9.09211894 5.37741734,9.1852776 5.43314618,9.24100645 L5.43314618,9.24100645 Z" id="Fill-66"></path>
                        </g>
                    </g>
                </g>
            </g>
        </g>
    </g>
</svg>