<?xml version="1.0" encoding="UTF-8" standalone="no"?>
<svg width="16px" height="13px" viewBox="0 0 16 13" version="1.1" xmlns="http://www.w3.org/2000/svg" xmlns:xlink="http://www.w3.org/1999/xlink" xmlns:sketch="http://www.bohemiancoding.com/sketch/ns">
    <!-- Generator: Sketch 3.5.1 (25234) - http://www.bohemiancoding.com/sketch -->
    <title>Group 7</title>
    <desc>Created with Sketch.</desc>
    <defs></defs>
    <g id="Page-1" stroke="none" stroke-width="1" fill="none" fill-rule="evenodd" sketch:type="MSPage">
        <g id="toolbar" sketch:type="MSArtboardGroup" transform="translate(-1370.000000, -15.000000)" fill="#FFFFFF">
            <g id="topnav" sketch:type="MSLayerGroup" transform="translate(0.000000, -3.000000)">
                <g id="Rectangle-1657-+-Group-Copy-4-+-Rectangle-47-+-Rectangle-47-Copy-2" transform="translate(404.000000, 0.000000)" sketch:type="MSShapeGroup">
                    <g id="Rectangle-1657-Copy-+-Group-Copy-6-Copy-Copy" transform="translate(953.000000, 0.000000)">
                        <g id="Group-Copy-6" transform="translate(13.000000, 17.000000)">
                            <g id="Historik-+-Fill-66">
                                <g id="Group-7" transform="translate(0.000000, 1.000000)">
                                    <path d="M0.0757874811,6.68632941 L0.680435129,7.41907784 C0.734322468,7.49075975 0.804851486,7.52580424 0.894399565,7.52580424 C0.964928583,7.54412295 1.05447666,7.508282 1.12500568,7.4549188 L8.0091133,1.69806484 L14.8749943,7.4549188 C14.9280892,7.508282 14.9994107,7.52580424 15.0707322,7.52580424 L15.1063929,7.52580424 C15.1951485,7.52580424 15.26647,7.49075975 15.3195649,7.41907784 L15.9242125,6.68632941 C15.9773074,6.6146475 16.0129681,6.54296559 15.995534,6.45376143 C15.995534,6.36455728 15.9598733,6.29287537 15.8885518,6.2387157 L13.7187939,4.41560575 L13.7187939,0.357613092 C13.7187939,0.250090225 13.6831332,0.178408313 13.6300383,0.125045112 C13.5761509,0.0533632008 13.4873953,0.0358409558 13.3986397,0.0358409558 L11.4951487,0.0358409558 C11.4063931,0.0358409558 11.3176375,0.0533632008 11.2637501,0.125045112 C11.2106552,0.178408313 11.1749945,0.250090225 11.1749945,0.357613092 L11.1749945,2.28824591 L8.75640391,0.268408935 C8.54243947,0.0892041566 8.29360675,0 8.0091133,0 C7.70639325,0 7.45756053,0.0892041566 7.24438856,0.268408935 L0.11144822,6.2387157 C0.0401267417,6.29287537 0.00446600233,6.36455728 0.00446600233,6.45376143 C-0.0129681369,6.54296559 0.0226926025,6.6146475 0.0757874811,6.68632941 L0.0757874811,6.68632941 Z M2.47694393,12.603273 C2.60136029,12.7283181 2.74400325,12.8 2.92151448,12.8 L6.72849653,12.8 L6.72849653,8.97457532 L9.27150347,8.97457532 L9.27150347,12.8 L13.0784855,12.8 C13.2559968,12.8 13.3986397,12.7283181 13.5230561,12.603273 C13.6474724,12.4782279 13.7187939,12.334864 13.7187939,12.1564557 L13.7187939,7.36491818 C13.7187939,7.34739593 13.7187939,7.32987369 13.7005673,7.31155497 L8.0091133,2.59169933 L2.2994327,7.31155497 C2.2994327,7.31155497 2.2812061,7.32987369 2.2812061,7.34739593 L2.2812061,7.36491818 L2.2812061,12.1564557 C2.2812061,12.334864 2.35252757,12.4782279 2.47694393,12.603273 L2.47694393,12.603273 Z" id="Fill-214"></path>
                                </g>
                            </g>
                        </g>
                    </g>
                </g>
            </g>
        </g>
    </g>
</svg>