<?xml version="1.0" encoding="UTF-8" standalone="no"?>
<svg xmlns="http://www.w3.org/2000/svg" viewBox="0 0 16 10"><g fill="none" fill-rule="evenodd"><path d="m.254 5.93c.056.042.112.07.182.07h1.496c.07 0 .126-.028.182-.07.042-.056.07-.112.07-.182v-1.497c0-.07-.028-.126-.07-.182-.056-.042-.112-.07-.182-.07h-1.496c-.07 0-.126.028-.182.07-.042.056-.07.112-.07.182v1.497c0 .07.027.126.07.182m0 4c.056.042.112.07.182.07h1.496c.07 0 .126-.028.182-.07.042-.056.07-.112.07-.182v-1.497c0-.07-.028-.126-.07-.182-.056-.042-.112-.07-.182-.07h-1.496c-.07 0-.126.028-.182.07-.042.056-.07.112-.07.182v1.497c0 .07.027.126.07.182m0-8c.056.042.112.07.182.07h1.496c.07 0 .126-.027.182-.07.042-.056.07-.112.07-.182v-1.496c0-.07-.028-.126-.07-.182-.056-.042-.112-.07-.182-.07h-1.496c-.07 0-.126.028-.182.07-.042.056-.07.112-.07.182v1.496c0 .07.027.126.07.182m3.34 4c.034.042.08.07.137.07h8.588c.058 0 .103-.028.149-.07.034-.056.057-.112.057-.182v-1.497c0-.07-.023-.126-.057-.182-.046-.042-.091-.07-.149-.07h-8.588c-.057 0-.103.028-.137.07-.046.056-.069.112-.069.182v1.497c0 .07.023.126.069.182m0 4c.034.042.08.07.137.07h8.588c.058 0 .103-.028.149-.07.034-.056.057-.112.057-.182v-1.497c0-.07-.023-.126-.057-.182-.046-.042-.091-.07-.149-.07h-8.588c-.057 0-.103.028-.137.07-.046.056-.069.112-.069.182v1.497c0 .07.023.126.069.182m.025-8c.047.042.109.07.187.07h11.711c.079 0 .141-.027.203-.07.047-.056.078-.112.078-.182v-1.496c0-.07-.031-.126-.078-.182-.063-.042-.125-.07-.203-.07h-11.711c-.078 0-.141.028-.187.07-.063.056-.094.112-.094.182v1.496c0 .07.031.126.094.182" fill="#465760"></path></g></svg>