<?xml version="1.0" encoding="UTF-8" standalone="no"?>
<svg width="16px" height="16px" viewBox="0 0 16 16" version="1.1" xmlns="http://www.w3.org/2000/svg" xmlns:xlink="http://www.w3.org/1999/xlink" xmlns:sketch="http://www.bohemiancoding.com/sketch/ns">
    <!-- Generator: Sketch 3.5.1 (25234) - http://www.bohemiancoding.com/sketch -->
    <title>Group</title>
    <desc>Created with Sketch.</desc>
    <defs></defs>
    <g id="Page-1" stroke="none" stroke-width="1" fill="none" fill-rule="evenodd" sketch:type="MSPage">
        <g id="Group" sketch:type="MSLayerGroup" fill="#FFFFFF">
            <path d="M5.99934109,2.41441334 L5.99979926,0.0402503245 C5.39008724,0.108253146 4.79735725,0.26316995 4.22187787,0.510660337 C3.43367812,0.85697022 2.74418613,1.31773845 2.17021878,1.89443246 C1.59552026,2.47039275 1.13634638,3.16227881 0.791234798,3.95248166 C0.446854387,4.75955978 0.282341452,5.59965473 0.282341452,6.47276651 C0.282341452,7.34514458 0.446854387,8.18523953 0.791234798,8.99231765 C1.13634638,9.7825205 1.59552026,10.4744066 2.17021878,11.0503669 C2.74418613,11.6270609 3.43367812,12.0885628 4.22187787,12.434139 C5.02543216,12.7797151 5.86262021,12.9447993 6.73271084,12.9447993 C8.07806107,12.9447993 9.29253211,12.5662063 10.3922097,11.8082866 L13.5267295,14.9536901 C13.7563164,15.1840742 14.0195371,15.3 14.3471006,15.3 C14.6753954,15.3 14.938616,15.1840742 15.1842887,14.9536901 C15.4138756,14.7064307 15.5294003,14.4430298 15.5294003,14.1135952 C15.5294003,13.8010358 15.4138756,13.5207596 15.1842887,13.2903755 L12.0497689,10.1449719 C12.7075122,9.18400312 13.0785836,8.1356769 13.1634658,6.98933317 L10.8100954,6.95932482 C10.7116167,7.88863925 10.3239887,8.69843109 9.63764369,9.38778593 C8.83335823,10.1941303 7.86455984,10.5895986 6.73271084,10.5895986 C5.60013068,10.5895986 4.63206346,10.1941303 3.827778,9.38778593 C3.02349253,8.58070781 2.62939266,7.60854553 2.62939266,6.47276651 C2.62939266,5.33625378 3.02349253,4.36482521 3.827778,3.55774709 C4.45265498,2.9307004 5.17639504,2.5521125 5.99934109,2.41441334 Z M12.8,2.029 L10.771,2.029 L10.771,-5.55111512e-17 L9.042,-5.55111512e-17 L9.042,2.029 L7,2.029 L7,3.628 L9.042,3.628 L9.042,5.8 L10.771,5.8 L10.771,3.628 L12.8,3.628 L12.8,2.029 Z" id="Shape" sketch:type="MSShapeGroup"></path>
        </g>
    </g>
</svg>