<?xml version="1.0" encoding="UTF-8" standalone="no"?>
<svg width="16px" height="16px" viewBox="0 0 16 16" version="1.1" xmlns="http://www.w3.org/2000/svg" xmlns:xlink="http://www.w3.org/1999/xlink">
    <defs></defs>
    <g>
        <g transform="translate(-691.000000, -58.000000)" fill="#F7F4EC">
            <g transform="translate(-469.000000, 0.000000)">
                <g transform="translate(0.000000, 41.000000)" >
                    <g transform="translate(4.000000, 5.000000)">
                        <g transform="translate(1129.000000, 1.000000)">
                            <g transform="translate(27.000000, 11.000000)">
                                <g>
                                    <path d="M2.17021878,11.0503669 C2.74418613,11.6270609 3.43367812,12.0885628 4.22187787,12.434139 C5.02543216,12.7797151 5.86262021,12.9447993 6.73271084,12.9447993 C8.07806107,12.9447993 9.29253211,12.5662063 10.3922097,11.8082866 L13.5267295,14.9536901 C13.7563164,15.1840742 14.0195371,15.3 14.3471006,15.3 C14.6753954,15.3 14.938616,15.1840742 15.1842887,14.9536901 C15.4138756,14.7064307 15.5294003,14.4430298 15.5294003,14.1135952 C15.5294003,13.8010358 15.4138756,13.5207596 15.1842887,13.2903755 L12.0497689,10.1449719 C12.8050661,9.04147605 13.1823491,7.82278809 13.1823491,6.47276651 C13.1823491,5.59965473 13.0178361,4.75955978 12.6734557,3.95248166 C12.3290753,3.16227881 11.8691703,2.47039275 11.2952029,1.89443246 C10.7205044,1.31773845 10.0310124,0.85697022 9.24354382,0.510660337 C8.43925836,0.165084161 7.60207031,0 6.73271084,0 C5.86262021,0 5.02543216,0.165084161 4.22187787,0.510660337 C3.43367812,0.85697022 2.74418613,1.31773845 2.17021878,1.89443246 C1.59552026,2.47039275 1.13634638,3.16227881 0.791234798,3.95248166 C0.446854387,4.75955978 0.282341452,5.59965473 0.282341452,6.47276651 C0.282341452,7.34514458 0.446854387,8.18523953 0.791234798,8.99231765 C1.13634638,9.7825205 1.59552026,10.4744066 2.17021878,11.0503669 L2.17021878,11.0503669 Z M6.73271084,2.35520069 C7.86455984,2.35520069 8.83335823,2.75066897 9.63764369,3.55774709 C10.441198,4.36482521 10.8352979,5.33625378 10.8352979,6.47276651 C10.8352979,7.60854553 10.441198,8.58070781 9.63764369,9.38778593 C8.83335823,10.1941303 7.86455984,10.5895986 6.73271084,10.5895986 C5.60013068,10.5895986 4.63206346,10.1941303 3.827778,9.38778593 C3.02349253,8.58070781 2.62939266,7.60854553 2.62939266,6.47276651 C2.62939266,5.33625378 3.02349253,4.36482521 3.827778,3.55774709 C4.63206346,2.75066897 5.60013068,2.35520069 6.73271084,2.35520069 L6.73271084,2.35520069 Z"></path>
                                </g>
                            </g>
                        </g>
                    </g>
                </g>
            </g>
        </g>
    </g>
</svg>