<?xml version="1.0" encoding="UTF-8" standalone="no"?>
<svg width="16px" height="16px" viewBox="0 0 16 16" version="1.1" xmlns="http://www.w3.org/2000/svg" xmlns:xlink="http://www.w3.org/1999/xlink" xmlns:sketch="http://www.bohemiancoding.com/sketch/ns">
    <!-- Generator: Sketch 3.5.1 (25234) - http://www.bohemiancoding.com/sketch -->
    <title>fa-gear (alias)</title>
    <desc>Created with Sketch.</desc>
    <defs></defs>
    <g id="Page-1" stroke="none" stroke-width="1" fill="none" fill-rule="evenodd" sketch:type="MSPage">
        <g id="toolbar" sketch:type="MSArtboardGroup" transform="translate(-1259.000000, -16.000000)" fill="#FFFFFF">
            <g id="topnav" sketch:type="MSLayerGroup" transform="translate(0.000000, -3.000000)">
                <g id="Rectangle-1657-+-Group-Copy-4-+-Rectangle-47-+-Rectangle-47-Copy-2" transform="translate(404.000000, 0.000000)" sketch:type="MSShapeGroup">
                    <g id="Group-2" transform="translate(855.000000, 17.000000)">
                        <g id="fa-gear-(alias)" transform="translate(0.000000, 2.000000)">
                            <path d="M0.694321676,9.17958514 C0.746772351,9.25004127 0.817228481,9.28526934 0.904907221,9.30327479 L2.69684146,9.56631101 C2.80252566,9.88258075 2.92543246,10.2168559 3.10157279,10.5331257 C2.99588859,10.7084832 2.81974827,10.9370742 2.57393466,11.2361213 C2.34534366,11.5343856 2.16998618,11.745754 2.08230744,11.8858834 C2.02907392,11.9563395 1.99384585,12.0267956 1.99384585,12.1144744 C1.99384585,12.2021531 2.02907392,12.2726092 2.06430198,12.3430654 C2.32812105,12.6945632 2.85497633,13.2386411 3.68087874,13.9768648 C3.75133487,14.0645435 3.83901361,14.0997716 3.92669235,14.0997716 C4.03237655,14.0997716 4.10283268,14.0645435 4.17328881,14.0120928 L5.56127457,12.9575994 C5.82509364,13.0985117 6.12335792,13.203413 6.43962766,13.3090972 L6.72066933,15.1190369 C6.72066933,15.2067156 6.77390285,15.2771718 6.82635353,15.3304053 C6.89680966,15.382856 6.9844884,15.418084 7.07216714,15.418084 L9.25161009,15.418084 C9.44419018,15.418084 9.54987438,15.3304053 9.60232505,15.1370424 C9.69078664,14.8207726 9.77846538,14.2054558 9.88414957,13.3090972 C10.1824139,13.2214185 10.481461,13.0985117 10.7625027,12.9403768 L12.1152604,14.0120928 C12.2029391,14.0645435 12.2914007,14.0997716 12.3790794,14.0997716 C12.5192088,14.0997716 12.818256,13.8539579 13.2926606,13.3967759 C13.7670652,12.9223713 14.1013404,12.5708735 14.2766979,12.3430654 C14.3291485,12.2726092 14.3643766,12.2021531 14.3643766,12.1144744 C14.3643766,12.0267956 14.3291485,11.9383341 14.2594752,11.8686608 C13.7850706,11.288572 13.4335728,10.83139 13.2049818,10.5151202 C13.3451112,10.2693066 13.4680181,9.97025949 13.5917077,9.61954453 L15.4008646,9.33772001 C15.4893261,9.33772001 15.5597823,9.28526934 15.6122329,9.21481321 C15.6646836,9.14513992 15.6826891,9.07468379 15.6826891,8.98622221 L15.6826891,6.82556755 C15.6826891,6.73710597 15.6646836,6.66743268 15.6122329,6.59697655 C15.5597823,6.52652042 15.4893261,6.49129236 15.4008646,6.47406975 L13.6089303,6.19302807 C13.5032461,5.87675833 13.3631167,5.56048859 13.2049818,5.24421885 C13.310666,5.06807853 13.4860235,4.83948753 13.7318371,4.54122325 C13.9604281,4.24217612 14.1357856,4.03159057 14.2242472,3.89067831 C14.2766979,3.82022218 14.3119259,3.7505489 14.3119259,3.66208731 C14.3119259,3.57440857 14.2766979,3.50395244 14.2414698,3.45150177 C13.9956562,3.11800942 13.4680181,2.55514322 12.624893,1.78247433 C12.5372143,1.7120182 12.4667582,1.67679014 12.3790794,1.67679014 C12.2733952,1.67679014 12.2029391,1.7120182 12.1332658,1.76446888 L10.7444972,2.81896229 C10.481461,2.67883287 10.1824139,2.57314868 9.86614412,2.46746448 L9.60232505,0.657524788 C9.60232505,0.569846048 9.54987438,0.499389918 9.4974237,0.446939244 C9.42696757,0.394488569 9.33928883,0.359260504 9.25161009,0.359260504 L7.07216714,0.359260504 C6.8788042,0.359260504 6.77390285,0.446939244 6.72066933,0.640302179 C6.63299059,0.956571918 6.54531185,1.57110594 6.43962766,2.46746448 C6.12335792,2.55514322 5.82509364,2.67883287 5.54326912,2.83696774 L4.19051142,1.78247433 C4.10283268,1.7120182 4.01515394,1.67679014 3.92669235,1.67679014 C3.78656294,1.67679014 3.4702932,1.92260375 2.99588859,2.37978574 C2.52148398,2.85419035 2.20521424,3.20568816 2.02907392,3.43427916 C1.97662324,3.5219579 1.94139518,3.60963664 1.94139518,3.66208731 C1.94139518,3.7505489 1.97662324,3.82022218 2.04707937,3.90868377 C2.48625592,4.43553905 2.83775372,4.89272105 3.10157279,5.26144146 C2.92543246,5.56048859 2.80252566,5.85875288 2.71484692,6.15780001 L0.886901765,6.43884168 C0.817228481,6.43884168 0.746772351,6.49129236 0.694321676,6.56174849 C0.641088156,6.63220462 0.623865546,6.70266075 0.623865546,6.79033949 L0.623865546,8.95177699 C0.623865546,9.03945573 0.641088156,9.10991186 0.694321676,9.17958514 L0.694321676,9.17958514 Z M8.16188862,5.38434827 C8.84687877,5.38434827 9.44419018,5.63016188 9.93660025,6.12257194 C10.4110049,6.61419916 10.6568185,7.19428796 10.6568185,7.88006096 C10.6568185,8.58227373 10.4110049,9.16236253 9.93660025,9.65398975 C9.44419018,10.1463998 8.84687877,10.3922134 8.16188862,10.3922134 C7.47611562,10.3922134 6.8788042,10.1463998 6.38717698,9.65398975 C5.89476692,9.16236253 5.64895331,8.58227373 5.64895331,7.88006096 C5.64895331,7.19428796 5.89476692,6.61419916 6.38717698,6.12257194 C6.8788042,5.63016188 7.47611562,5.38434827 8.16188862,5.38434827 L8.16188862,5.38434827 Z" id="Fill-110"></path>
                        </g>
                    </g>
                </g>
            </g>
        </g>
    </g>
</svg>