<?xml version="1.0" encoding="UTF-8" standalone="no"?>
<svg width="16px" height="11px" viewBox="0 0 16 11" version="1.1" xmlns="http://www.w3.org/2000/svg" xmlns:xlink="http://www.w3.org/1999/xlink">
    <defs></defs>
    <g stroke="none" stroke-width="1" fill="none" fill-rule="evenodd" >
        <path d="M10.4215111,3.55271368e-15 L10.4215111,0.00163226274 C10.4108445,0.00145090022 10.4007111,3.55271368e-15 10.3898667,3.55271368e-15 C9.38168888,3.55271368e-15 8.4992,0.540823056 7.99982222,1.352239 C7.50133333,0.541004418 6.62062222,3.55271368e-15 5.61244445,3.55271368e-15 C5.59644445,3.55271368e-15 5.58097778,0.00217635032 5.56515555,0.00253907538 L5.56515555,3.55271368e-15 L0,3.55271368e-15 L0,9.93540196 L5.39128888,9.93540196 L5.39128888,9.94211237 C6.22222222,9.97965441 6.95715555,10.3846369 7.44888888,11 L8.55164445,11 C9.06862222,10.3514476 9.8544,9.93540196 10.7379555,9.93540196 C10.7486222,9.93540196 10.7589333,9.93703422 10.7696,9.9372156 L10.7696,9.93540196 L16,9.93540196 L16,3.55271368e-15 L10.4215111,3.55271368e-15 L10.4215111,3.55271368e-15 L10.4215111,3.55271368e-15 Z M5.39128888,8.34521533 L5.39128888,8.33868628 L0.695644445,8.33868628 L0.695644445,0.70967157 L5.56515555,0.70967157 L5.56515555,0.712029281 C5.58097778,0.711847919 5.59644445,0.70967157 5.61244445,0.70967157 C6.41671112,0.70967157 7.13937778,1.22183935 7.65208888,1.84064829 L7.65208888,9.40310295 L7.44888888,9.40310295 C6.95715555,8.7877399 6.22222222,8.38293874 5.39128888,8.34521533 L5.39128888,8.34521533 L5.39128888,8.34521533 Z M15.3043555,8.33868628 L10.7694222,8.33868628 L10.7694222,8.3404999 C10.7587555,8.34031854 10.7484445,8.33868628 10.7377778,8.33868628 C9.85422222,8.33868628 9.06844445,8.75473191 8.55146667,9.40310295 L8.34773333,9.40310295 L8.34773333,1.84119238 C8.86151112,1.22202071 9.58524445,0.70967157 10.3898667,0.70967157 C10.4007111,0.70967157 10.4108445,0.71112247 10.4215111,0.711303832 L10.4215111,0.70967157 L15.3043555,0.70967157 L15.3043555,8.33868628 L15.3043555,8.33868628 L15.3043555,8.33868628 Z" fill="#465760" ></path>
    </g>
</svg>